<svg xmlns="http://www.w3.org/2000/svg" width="16" height="16"><path d="M2 6.332h12M2 9.668h12M5.332 3v10m-1.2 0h7.735c.746 0 1.121 0 1.406-.145a1.35 1.35 0 0 0 .582-.582c.145-.285.145-.66.145-1.406V5.133c0-.746 0-1.121-.145-1.406a1.35 1.35 0 0 0-.582-.582C12.988 3 12.613 3 11.867 3H4.133c-.746 0-1.121 0-1.406.145a1.35 1.35 0 0 0-.582.582C2 4.012 2 4.387 2 5.133v5.734c0 .746 0 1.121.145 1.406.128.25.332.454.582.582.285.145.66.145 1.406.145zm0 0" fill="none" stroke-width="1.33334" stroke="#000"/></svg>
